<?xml version="1.0" encoding="UTF-8" standalone="no"?>
<!-- Created with Inkscape (http://www.inkscape.org/) -->

<svg
   xmlns:dc="http://purl.org/dc/elements/1.1/"
   xmlns:cc="http://creativecommons.org/ns#"
   xmlns:rdf="http://www.w3.org/1999/02/22-rdf-syntax-ns#"
   xmlns:svg="http://www.w3.org/2000/svg"
   xmlns="http://www.w3.org/2000/svg"
   xmlns:sodipodi="http://sodipodi.sourceforge.net/DTD/sodipodi-0.dtd"
   xmlns:inkscape="http://www.inkscape.org/namespaces/inkscape"
   version="1.2"
   width="241.12273"
   height="54.692749"
   id="svg2"
   inkscape:version="0.48.4 r9939"
   sodipodi:docname="logo.svg">
  <sodipodi:namedview
     pagecolor="#ffffff"
     bordercolor="#666666"
     borderopacity="1"
     objecttolerance="10"
     gridtolerance="10"
     guidetolerance="10"
     inkscape:pageopacity="0"
     inkscape:pageshadow="2"
     inkscape:window-width="640"
     inkscape:window-height="480"
     id="namedview16"
     showgrid="false"
     inkscape:zoom="1.1612344"
     inkscape:cx="120.56136"
     inkscape:cy="27.346375"
     inkscape:window-x="0"
     inkscape:window-y="0"
     inkscape:window-maximized="0"
     inkscape:current-layer="svg2" />
  <defs
     id="defs4" />
  <metadata
     id="metadata7">
    <rdf:RDF>
      <cc:Work
         rdf:about="">
        <dc:format>image/svg+xml</dc:format>
        <dc:type
           rdf:resource="http://purl.org/dc/dcmitype/StillImage" />
        <dc:title />
      </cc:Work>
    </rdf:RDF>
  </metadata>
  <g
     transform="translate(-149.08704,-549.02062)"
     id="layer1">
    <g
       style="font-size:40px;font-style:normal;font-weight:normal;line-height:125%;letter-spacing:0px;word-spacing:0px;fill:#000000;fill-opacity:1;stroke:none;font-family:Sans"
       id="flowRoot2985" />
    <g
       style="font-size:40px;font-style:normal;font-variant:normal;font-weight:normal;font-stretch:normal;text-align:start;line-height:125%;letter-spacing:0px;word-spacing:0px;writing-mode:lr-tb;text-anchor:start;fill:#999999;fill-opacity:1;stroke:none;font-family:Ubuntu Condensed;-inkscape-font-specification:'Ubuntu Condensed,'"
       id="text2997">
      <path
         d="m 234.57664,574.90062 c 1.43999,0 2.54666,-0.4 3.32,-1.2 0.79999,-0.8 1.19999,-1.88 1.2,-3.24 -1e-5,-0.72 -0.12001,-1.36 -0.36,-1.92 -0.24001,-0.56 -0.56001,-1.06666 -0.96,-1.52 -0.37334,-0.45333 -0.81334,-0.86666 -1.32,-1.24 -0.50667,-0.37333 -1.02667,-0.74666 -1.56,-1.12 -0.61334,-0.42666 -1.25334,-0.87999 -1.92,-1.36 -0.66667,-0.47999 -1.28,-1.03999 -1.84,-1.68 -0.53333,-0.63999 -0.97333,-1.38665 -1.32,-2.24 -0.34667,-0.85332 -0.52,-1.85332 -0.52,-3 0,-1.11998 0.18667,-2.13331 0.56,-3.04 0.4,-0.90665 0.93333,-1.67998 1.6,-2.32 0.69333,-0.63998 1.50666,-1.13331 2.44,-1.48 0.95999,-0.34664 1.98666,-0.51998 3.08,-0.52 1.06666,2e-5 2.05332,0.13336 2.96,0.4 0.90666,0.26669 1.66665,0.58669 2.28,0.96 l -1.12,2.84 c -0.56001,-0.37331 -1.17334,-0.65331 -1.84,-0.84 -0.64001,-0.21331 -1.32001,-0.31998 -2.04,-0.32 -1.30667,2e-5 -2.36001,0.36002 -3.16,1.08 -0.77334,0.69335 -1.16,1.72002 -1.16,3.08 0,0.74668 0.12,1.40001 0.36,1.96 0.26666,0.56001 0.6,1.06668 1,1.52 0.42666,0.45335 0.90666,0.86668 1.44,1.24 0.55999,0.37334 1.14666,0.76001 1.76,1.16 0.61332,0.40001 1.23999,0.84001 1.88,1.32 0.63999,0.48001 1.21332,1.04001 1.72,1.68 0.53332,0.61334 0.95999,1.34667 1.28,2.2 0.34665,0.82667 0.51999,1.81334 0.52,2.96 -1e-5,1.04 -0.16001,2.02667 -0.48,2.96 -0.32001,0.93333 -0.82668,1.76 -1.52,2.48 -0.66668,0.69333 -1.52001,1.25333 -2.56,1.68 -1.01334,0.39999 -2.21334,0.59999 -3.6,0.6 -1.28,-1e-5 -2.4,-0.14667 -3.36,-0.44 -0.96,-0.29334 -1.81333,-0.68 -2.56,-1.16 l 1.12,-2.88 c 0.69333,0.42667 1.4,0.77333 2.12,1.04 0.74666,0.24 1.6,0.36 2.56,0.36"
         style=""
         id="path2995" />
      <path
         d="m 251.75227,573.02062 c 0.77332,-2.66666 1.47999,-5.34666 2.12,-8.04 0.63999,-2.69332 1.25332,-5.55999 1.84,-8.6 l 3.4,0 c -0.40002,1.94668 -0.84002,3.86668 -1.32,5.76 -0.45335,1.89334 -0.93335,3.72001 -1.44,5.48 -0.48002,1.76 -0.97335,3.42667 -1.48,5 -0.48001,1.54667 -0.93335,2.96 -1.36,4.24 -0.50668,1.49333 -1.00001,2.74666 -1.48,3.76 -0.45334,1.03999 -0.96001,1.86666 -1.52,2.48 -0.53334,0.63999 -1.12001,1.09332 -1.76,1.36 -0.64001,0.29332 -1.40001,0.43999 -2.28,0.44 -0.48001,-10e-6 -0.96,-0.0667 -1.44,-0.2 -0.48,-0.10668 -0.88,-0.22668 -1.2,-0.36 l 0.64,-2.8 c 0.69333,0.29332 1.34666,0.43999 1.96,0.44 0.77333,-1e-5 1.39999,-0.28001 1.88,-0.84 0.47999,-0.56001 0.94666,-1.40001 1.4,-2.52 l 0.4,-1 c -0.50668,-1.38667 -1.02668,-2.92 -1.56,-4.6 -0.50667,-1.70667 -1.01334,-3.48 -1.52,-5.32 -0.48001,-1.83999 -0.94667,-3.71999 -1.4,-5.64 -0.45334,-1.94665 -0.86667,-3.83999 -1.24,-5.68 l 3.64,0 c 0.21333,1.25335 0.46666,2.62668 0.76,4.12 0.29332,1.49334 0.59999,2.98668 0.92,4.48 0.34666,1.49334 0.69332,2.94667 1.04,4.36 0.34666,1.38667 0.67999,2.61333 1,3.68"
         style=""
         id="path2997" />
      <path
         d="m 265.69164,574.94062 c 1.01333,0 1.77333,-0.28 2.28,-0.84 0.53333,-0.58667 0.79999,-1.34667 0.8,-2.28 -10e-6,-0.58667 -0.10667,-1.08 -0.32,-1.48 -0.21334,-0.42666 -0.49334,-0.8 -0.84,-1.12 -0.34667,-0.32 -0.74667,-0.6 -1.2,-0.84 -0.45334,-0.26666 -0.90667,-0.54666 -1.36,-0.84 -0.45334,-0.26666 -0.89334,-0.57333 -1.32,-0.92 -0.42667,-0.37333 -0.81333,-0.78666 -1.16,-1.24 -0.32,-0.47999 -0.58667,-1.01333 -0.8,-1.6 -0.18667,-0.61332 -0.28,-1.31999 -0.28,-2.12 0,-1.73332 0.53333,-3.13332 1.6,-4.2 1.09333,-1.06665 2.56,-1.59998 4.4,-1.6 0.77333,2e-5 1.50666,0.10668 2.2,0.32 0.69332,0.18668 1.26666,0.40002 1.72,0.64 l -0.76,2.76 c -0.48001,-0.26665 -0.96001,-0.46665 -1.44,-0.6 -0.48001,-0.13332 -1.00001,-0.19999 -1.56,-0.2 -0.85334,10e-6 -1.53334,0.25335 -2.04,0.76 -0.50667,0.48001 -0.76,1.18668 -0.76,2.12 0,0.53334 0.0933,1.00001 0.28,1.4 0.18666,0.37334 0.42666,0.72001 0.72,1.04 0.32,0.29334 0.66666,0.57334 1.04,0.84 0.39999,0.26667 0.81333,0.52001 1.24,0.76 0.50666,0.29334 0.99999,0.61334 1.48,0.96 0.50666,0.34667 0.94666,0.76001 1.32,1.24 0.39999,0.45334 0.71999,1 0.96,1.64 0.23999,0.61334 0.35999,1.36 0.36,2.24 -1e-5,1.84 -0.54668,3.32 -1.64,4.44 -1.06667,1.12 -2.64001,1.67999 -4.72,1.68 -1.06667,-10e-6 -2.02667,-0.14667 -2.88,-0.44 -0.85333,-0.29334 -1.49333,-0.56 -1.92,-0.8 l 0.72,-2.84 c 0.4,0.21333 0.93333,0.45333 1.6,0.72 0.69333,0.26666 1.45333,0.4 2.28,0.4"
         style=""
         id="path2999" />
      <path
         d="m 279.64352,556.38062 5.28,0 0,2.96 -5.28,0 0,11.56 c -1e-5,1.44 0.25332,2.45333 0.76,3.04 0.53332,0.56 1.23999,0.84 2.12,0.84 0.45332,0 0.87999,-0.0667 1.28,-0.2 0.42665,-0.13334 0.78665,-0.29334 1.08,-0.48 l 0.68,2.76 c -1.09335,0.64 -2.25335,0.95999 -3.48,0.96 -1.97334,-10e-6 -3.45334,-0.54667 -4.44,-1.64 -0.96001,-1.12 -1.44001,-2.96 -1.44,-5.52 l 0,-19.92 3.44,-0.6 0,6.24"
         style=""
         id="path3001" />
      <path
         d="m 291.38164,567.90062 c 0.0267,1.01334 0.12,1.94667 0.28,2.8 0.16,0.82667 0.41333,1.56 0.76,2.2 0.37333,0.61333 0.85333,1.09333 1.44,1.44 0.61333,0.34666 1.38666,0.52 2.32,0.52 0.77332,0 1.47999,-0.10667 2.12,-0.32 0.66666,-0.24 1.14665,-0.44 1.44,-0.6 l 0.64,2.76 c -0.34668,0.24 -0.93335,0.49333 -1.76,0.76 -0.80001,0.29333 -1.76001,0.43999 -2.88,0.44 -1.46667,-10e-6 -2.70667,-0.26667 -3.72,-0.8 -0.98667,-0.53334 -1.8,-1.28 -2.44,-2.24 -0.61333,-0.96 -1.05333,-2.10667 -1.32,-3.44 -0.26667,-1.33333 -0.4,-2.8 -0.4,-4.4 0,-3.86666 0.64,-6.69332 1.92,-8.48 1.28,-1.78665 2.97333,-2.67998 5.08,-2.68 2.37332,2e-5 4.05332,0.89335 5.04,2.68 0.98665,1.78668 1.47999,4.29334 1.48,7.52 -1e-5,0.29334 -1e-5,0.60001 0,0.92 -1e-5,0.29334 -0.0134,0.60001 -0.04,0.92 l -9.96,0 m 3.48,-9.12 c -1.14667,10e-6 -1.98667,0.57335 -2.52,1.72 -0.50667,1.14668 -0.81334,2.68001 -0.92,4.6 l 6.36,0 c -10e-6,-1.94666 -0.20001,-3.47999 -0.6,-4.6 -0.40001,-1.14665 -1.17334,-1.71999 -2.32,-1.72"
         style=""
         id="path3003" />
      <path
         d="m 306.44352,556.98062 c 0.93333,-0.29332 1.94666,-0.53332 3.04,-0.72 1.09332,-0.21332 2.09332,-0.31998 3,-0.32 0.93332,2e-5 1.77332,0.12002 2.52,0.36 0.77332,0.24002 1.45332,0.64002 2.04,1.2 0.69332,-0.45332 1.43998,-0.82665 2.24,-1.12 0.79998,-0.29332 1.67998,-0.43998 2.64,-0.44 0.95998,2e-5 1.82664,0.14668 2.6,0.44 0.79997,0.26668 1.47997,0.73335 2.04,1.4 0.55997,0.66668 0.99997,1.57335 1.32,2.72 0.31997,1.12001 0.47997,2.52001 0.48,4.2 l 0,12.68 -3.44,0 0,-12.4 c -2e-5,-2.07999 -0.24002,-3.59999 -0.72,-4.56 -0.48002,-0.95999 -1.38669,-1.43999 -2.72,-1.44 -0.50669,10e-6 -1.02669,0.0933 -1.56,0.28 -0.50669,0.18668 -0.98669,0.44001 -1.44,0.76 0.21331,0.61335 0.37331,1.30668 0.48,2.08 0.10665,0.77334 0.15998,1.64001 0.16,2.6 l 0,12.68 -3.44,0 0,-12.4 c -2e-5,-2.07999 -0.24002,-3.59999 -0.72,-4.56 -0.48001,-0.95999 -1.38668,-1.43999 -2.72,-1.44 -0.69334,10e-6 -1.48001,0.13335 -2.36,0.4 l 0,18 -3.44,0 0,-20.4"
         style=""
         id="path3005" />
      <path
         d="m 353.17414,563.54062 c -2e-5,2.16001 -0.20002,4.13334 -0.6,5.92 -0.37335,1.76 -0.97335,3.28 -1.8,4.56 -0.80002,1.25333 -1.82668,2.22666 -3.08,2.92 -1.22668,0.69333 -2.68001,1.03999 -4.36,1.04 -1.68001,-1e-5 -3.14667,-0.34667 -4.4,-1.04 -1.22667,-0.69334 -2.25334,-1.66667 -3.08,-2.92 -0.8,-1.28 -1.4,-2.8 -1.8,-4.56 -0.4,-1.78666 -0.6,-3.75999 -0.6,-5.92 0,-2.15999 0.2,-4.13332 0.6,-5.92 0.4,-1.78665 1,-3.30665 1.8,-4.56 0.82666,-1.27998 1.85333,-2.26664 3.08,-2.96 1.25333,-0.71998 2.71999,-1.07998 4.4,-1.08 1.67999,2e-5 3.13332,0.36002 4.36,1.08 1.25332,0.69336 2.27998,1.68002 3.08,2.96 0.82665,1.25335 1.42665,2.77335 1.8,4.56 0.39998,1.78668 0.59998,3.76001 0.6,5.92 m -3.84,0 c -2e-5,-1.67999 -0.10668,-3.21332 -0.32,-4.6 -0.21335,-1.38665 -0.56002,-2.57332 -1.04,-3.56 -0.48001,-1.01332 -1.10668,-1.79998 -1.88,-2.36 -0.74668,-0.55998 -1.66668,-0.83998 -2.76,-0.84 -1.09334,2e-5 -2.02667,0.28002 -2.8,0.84 -0.74667,0.56002 -1.36001,1.34668 -1.84,2.36 -0.48001,0.98668 -0.84,2.17335 -1.08,3.56 -0.21334,1.38668 -0.32,2.92001 -0.32,4.6 0,1.68001 0.10666,3.21334 0.32,4.6 0.24,1.38667 0.59999,2.57334 1.08,3.56 0.47999,0.98667 1.09333,1.76 1.84,2.32 0.77333,0.53333 1.70666,0.8 2.8,0.8 1.09332,0 2.01332,-0.26667 2.76,-0.8 0.77332,-0.56 1.39999,-1.33333 1.88,-2.32 0.47998,-0.98666 0.82665,-2.17333 1.04,-3.56 0.21332,-1.38666 0.31998,-2.91999 0.32,-4.6"
         style=""
         id="path3007" />
      <path
         d="m 358.55289,556.98062 c 0.98666,-0.29332 2.05333,-0.53332 3.2,-0.72 1.14666,-0.21332 2.19999,-0.31998 3.16,-0.32 1.03999,2e-5 1.98666,0.14668 2.84,0.44 0.85332,0.26668 1.57332,0.73335 2.16,1.4 0.61332,0.66668 1.07999,1.57335 1.4,2.72 0.34665,1.12001 0.51999,2.52001 0.52,4.2 l 0,12.68 -3.44,0 0,-12.4 c -1e-5,-2.07999 -0.26668,-3.59999 -0.8,-4.56 -0.53334,-0.95999 -1.53334,-1.43999 -3,-1.44 -0.77334,10e-6 -1.64001,0.13335 -2.6,0.4 l 0,18 -3.44,0 0,-20.4"
         style=""
         id="path3009" />
      <path
         d="m 380.20977,567.90062 c 0.0267,1.01334 0.11999,1.94667 0.28,2.8 0.15999,0.82667 0.41332,1.56 0.76,2.2 0.37332,0.61333 0.85332,1.09333 1.44,1.44 0.61332,0.34666 1.38665,0.52 2.32,0.52 0.77332,0 1.47999,-0.10667 2.12,-0.32 0.66665,-0.24 1.14665,-0.44 1.44,-0.6 l 0.64,2.76 c -0.34668,0.24 -0.93335,0.49333 -1.76,0.76 -0.80002,0.29333 -1.76001,0.43999 -2.88,0.44 -1.46668,-10e-6 -2.70668,-0.26667 -3.72,-0.8 -0.98667,-0.53334 -1.80001,-1.28 -2.44,-2.24 -0.61334,-0.96 -1.05334,-2.10667 -1.32,-3.44 -0.26667,-1.33333 -0.40001,-2.8 -0.4,-4.4 -1e-5,-3.86666 0.63999,-6.69332 1.92,-8.48 1.27999,-1.78665 2.97332,-2.67998 5.08,-2.68 2.37332,2e-5 4.05332,0.89335 5.04,2.68 0.98665,1.78668 1.47998,4.29334 1.48,7.52 -2e-5,0.29334 -2e-5,0.60001 0,0.92 -2e-5,0.29334 -0.0134,0.60001 -0.04,0.92 l -9.96,0 m 3.48,-9.12 c -1.14668,10e-6 -1.98668,0.57335 -2.52,1.72 -0.50668,1.14668 -0.81334,2.68001 -0.92,4.6 l 6.36,0 c -2e-5,-1.94666 -0.20001,-3.47999 -0.6,-4.6 -0.40001,-1.14665 -1.17335,-1.71999 -2.32,-1.72"
         style=""
         id="path3011" />
    </g>
    <g
       style="font-size:28px;font-style:normal;font-variant:normal;font-weight:normal;font-stretch:normal;text-align:start;line-height:125%;letter-spacing:0px;word-spacing:0px;writing-mode:lr-tb;text-anchor:start;fill:#666666;fill-opacity:1;stroke:none;font-family:Ubuntu Condensed;-inkscape-font-specification:'Ubuntu Condensed,'"
       id="text3001">
      <path
         d="m 306.4736,601.19337 0,2.156 -8.652,0 0,-19.404 2.52,0 0,17.248 6.132,0"
         style="line-height:125%;font-family:Ubuntu Condensed;-inkscape-font-specification:'Ubuntu Condensed,'"
         id="path3014" />
      <path
         d="m 311.76473,603.34937 -2.408,0 0,-14.7 2.408,0 0,14.7 m -1.204,-17.304 c -0.42934,10e-6 -0.80267,-0.13999 -1.12,-0.42 -0.29867,-0.29865 -0.448,-0.69065 -0.448,-1.176 0,-0.48532 0.14933,-0.86798 0.448,-1.148 0.31733,-0.29865 0.69066,-0.44798 1.12,-0.448 0.42933,2e-5 0.79333,0.14935 1.092,0.448 0.31733,0.28002 0.47599,0.66268 0.476,1.148 -1e-5,0.48535 -0.15867,0.87735 -0.476,1.176 -0.29867,0.28001 -0.66267,0.42001 -1.092,0.42"
         style="line-height:125%;font-family:Ubuntu Condensed;-inkscape-font-specification:'Ubuntu Condensed,'"
         id="path3016" />
      <path
         d="m 318.37798,588.64937 3.696,0 0,2.072 -3.696,0 0,8.092 c 0,1.008 0.17733,1.71733 0.532,2.128 0.37333,0.392 0.86799,0.588 1.484,0.588 0.31733,0 0.61599,-0.0467 0.896,-0.14 0.29866,-0.0933 0.55066,-0.20534 0.756,-0.336 l 0.476,1.932 c -0.76534,0.448 -1.57734,0.67199 -2.436,0.672 -1.38134,-10e-6 -2.41734,-0.38267 -3.108,-1.148 -0.672,-0.784 -1.008,-2.072 -1.008,-3.864 l 0,-13.944 2.408,-0.42 0,4.368"
         style="line-height:125%;font-family:Ubuntu Condensed;-inkscape-font-specification:'Ubuntu Condensed,'"
         id="path3018" />
      <path
         d="m 326.59467,596.71337 c 0.0187,0.70933 0.084,1.36267 0.196,1.96 0.11199,0.57867 0.28933,1.092 0.532,1.54 0.26133,0.42933 0.59733,0.76533 1.008,1.008 0.42932,0.24266 0.97066,0.364 1.624,0.364 0.54132,0 1.03599,-0.0747 1.484,-0.224 0.46665,-0.168 0.80265,-0.308 1.008,-0.42 l 0.448,1.932 c -0.24268,0.168 -0.65335,0.34533 -1.232,0.532 -0.56001,0.20533 -1.23201,0.30799 -2.016,0.308 -1.02668,-1e-5 -1.89467,-0.18667 -2.604,-0.56 -0.69067,-0.37334 -1.26001,-0.896 -1.708,-1.568 -0.42934,-0.672 -0.73734,-1.47467 -0.924,-2.408 -0.18667,-0.93333 -0.28,-1.96 -0.28,-3.08 0,-2.70666 0.448,-4.68533 1.344,-5.936 0.89599,-1.25066 2.08133,-1.87599 3.556,-1.876 1.66132,1e-5 2.83732,0.62534 3.528,1.876 0.69065,1.25067 1.03599,3.00534 1.036,5.264 -1e-5,0.20534 -1e-5,0.42 0,0.644 -1e-5,0.20534 -0.009,0.42 -0.028,0.644 l -6.972,0 m 2.436,-6.384 c -0.80268,10e-6 -1.39067,0.40134 -1.764,1.204 -0.35467,0.80267 -0.56934,1.87601 -0.644,3.22 l 4.452,0 c -1e-5,-1.36266 -0.14001,-2.43599 -0.42,-3.22 -0.28001,-0.80266 -0.82134,-1.20399 -1.624,-1.204"
         style="line-height:125%;font-family:Ubuntu Condensed;-inkscape-font-specification:'Ubuntu Condensed,'"
         id="path3020" />
    </g>
    <g
       style="font-size:40px;font-style:normal;font-variant:normal;font-weight:normal;font-stretch:normal;text-align:start;line-height:125%;letter-spacing:0px;word-spacing:0px;writing-mode:lr-tb;text-anchor:start;fill:#37c8ab;fill-opacity:1;stroke:none;font-family:Ubuntu Condensed;-inkscape-font-specification:'Ubuntu Condensed,'"
       id="text3005">
      <path
         d="m 156.84704,578.69558 c -2.58667,0 -4.53334,-0.73333 -5.84,-2.2 -1.28,-1.46666 -1.92,-3.78666 -1.92,-6.96 l 0,-19.16 3.6,0 0,18.84 c -1e-5,2.10667 0.30666,3.69334 0.92,4.76 0.61333,1.04 1.71999,1.56 3.32,1.56 1.65332,0 2.77332,-0.53333 3.36,-1.6 0.61332,-1.09333 0.91999,-2.66666 0.92,-4.72 l 0,-18.84 3.6,0 0,19.16 c -2e-5,3.12001 -0.66668,5.42667 -2,6.92 -1.33335,1.49333 -3.32001,2.24 -5.96,2.24"
         style=""
         id="path3023" />
      <path
         d="m 171.28017,550.77558 c 1.86666,-0.4533 3.69332,-0.67997 5.48,-0.68 1.38665,3e-5 2.63998,0.17336 3.76,0.52 1.14665,0.32003 2.11998,0.84003 2.92,1.56 0.82665,0.69336 1.45331,1.60003 1.88,2.72 0.45331,1.12002 0.67998,2.46669 0.68,4.04 -2e-5,1.60002 -0.22669,2.97335 -0.68,4.12 -0.45335,1.12001 -1.09335,2.04001 -1.92,2.76 -0.82669,0.69335 -1.82668,1.20001 -3,1.52 -1.14668,0.32001 -2.42668,0.48001 -3.84,0.48 l -1.68,0 0,10.28 -3.6,0 0,-27.32 m 3.6,13.88 1.44,0 c 0.90665,10e-6 1.71999,-0.0933 2.44,-0.28 0.74665,-0.21332 1.37332,-0.54665 1.88,-1 0.50665,-0.45332 0.89332,-1.03998 1.16,-1.76 0.26665,-0.71998 0.39998,-1.61331 0.4,-2.68 -2e-5,-1.06665 -0.13335,-1.95998 -0.4,-2.68 -0.26668,-0.74664 -0.64002,-1.33331 -1.12,-1.76 -0.45335,-0.45331 -1.01335,-0.77331 -1.68,-0.96 -0.66668,-0.18664 -1.40001,-0.27997 -2.2,-0.28 -0.69335,3e-5 -1.33334,0.04 -1.92,0.12 l 0,11.28"
         style=""
         id="path3025" />
      <path
         d="m 203.01517,575.01558 0,3.08 -12.36,0 0,-27.72 3.6,0 0,24.64 8.76,0"
         style=""
         id="path3027" />
      <path
         d="m 210.97392,562.17558 2.48,0 c 3.30665,2e-5 4.95998,-1.49331 4.96,-4.48 -2e-5,-0.93331 -0.14668,-1.69331 -0.44,-2.28 -0.26668,-0.61331 -0.62668,-1.07998 -1.08,-1.4 -0.45335,-0.34664 -0.98668,-0.58664 -1.6,-0.72 -0.58668,-0.13331 -1.21335,-0.19997 -1.88,-0.2 -0.40001,3e-5 -0.81335,0.0134 -1.24,0.04 -0.40001,0.0267 -0.80001,0.0667 -1.2,0.12 l 0,8.92 m 0,2.88 0,10 c 0.50666,0.08 0.99999,0.14667 1.48,0.2 0.50665,0.0533 0.99999,0.08 1.48,0.08 0.74665,0 1.45332,-0.08 2.12,-0.24 0.66665,-0.16 1.23998,-0.42666 1.72,-0.8 0.50665,-0.37333 0.89331,-0.87999 1.16,-1.52 0.29331,-0.66666 0.43998,-1.47999 0.44,-2.44 -2e-5,-1.65332 -0.45335,-2.94665 -1.36,-3.88 -0.88002,-0.93332 -2.26668,-1.39999 -4.16,-1.4 l -2.88,0 m -3.6,-14.28 c 0.93333,-0.2133 1.87999,-0.3733 2.84,-0.48 0.98666,-0.1333 1.95999,-0.19997 2.92,-0.2 1.19999,3e-5 2.33332,0.12003 3.4,0.36 1.09332,0.21336 2.05331,0.60003 2.88,1.16 0.82665,0.53336 1.47998,1.25336 1.96,2.16 0.50664,0.88002 0.75998,1.98669 0.76,3.32 -2e-5,1.65335 -0.34669,3.01335 -1.04,4.08 -0.69335,1.04002 -1.58669,1.81335 -2.68,2.32 1.35998,0.53335 2.47998,1.34668 3.36,2.44 0.87998,1.09335 1.31998,2.60001 1.32,4.52 -2e-5,1.44001 -0.24002,2.65334 -0.72,3.64 -0.45336,0.98667 -1.10669,1.8 -1.96,2.44 -0.85335,0.61334 -1.88002,1.06667 -3.08,1.36 -1.17335,0.26667 -2.46668,0.4 -3.88,0.4 -0.93335,0 -1.90668,-0.0533 -2.92,-0.16 -1.01334,-0.10667 -2.06668,-0.26667 -3.16,-0.48 l 0,-26.88"
         style=""
         id="path3029" />
    </g>
  </g>
</svg>
